<svg xmlns="http://www.w3.org/2000/svg" xmlns:xlink="http://www.w3.org/1999/xlink" preserveAspectRatio="xMidYMid" width="38.062" height="15.37" viewBox="0 0 38.062 15.37">
  <defs>
    <style>
      .cls-1 {
        fill: #fff;
        fill-rule: evenodd;
      }
    </style>
  </defs>
  <path d="M37.482,8.376 C37.098,9.396 36.582,10.245 35.934,10.923 C35.286,11.601 34.539,12.117 33.693,12.471 C32.847,12.825 31.956,13.032 31.020,13.092 L30.480,11.166 C31.200,11.082 31.839,10.926 32.397,10.698 C32.955,10.470 33.435,10.182 33.837,9.834 C34.239,9.486 34.569,9.093 34.827,8.655 C35.085,8.217 35.268,7.752 35.376,7.260 C35.064,7.572 34.725,7.788 34.359,7.908 C33.993,8.028 33.510,8.088 32.910,8.088 C32.406,8.088 31.911,8.010 31.425,7.854 C30.939,7.698 30.504,7.458 30.120,7.134 C29.736,6.810 29.424,6.405 29.184,5.919 C28.944,5.433 28.824,4.860 28.824,4.200 C28.824,3.588 28.926,3.027 29.130,2.517 C29.334,2.007 29.628,1.563 30.012,1.185 C30.396,0.807 30.864,0.513 31.416,0.303 C31.968,0.093 32.598,-0.012 33.306,-0.012 C34.794,-0.012 35.958,0.399 36.798,1.221 C37.638,2.043 38.058,3.222 38.058,4.758 C38.058,6.150 37.866,7.356 37.482,8.376 ZM35.511,3.660 C35.421,3.348 35.280,3.069 35.088,2.823 C34.896,2.577 34.650,2.379 34.350,2.229 C34.050,2.079 33.696,2.004 33.288,2.004 C32.652,2.004 32.157,2.187 31.803,2.553 C31.449,2.919 31.272,3.426 31.272,4.074 C31.272,4.734 31.485,5.232 31.911,5.568 C32.337,5.904 32.862,6.072 33.486,6.072 C34.026,6.072 34.464,5.991 34.800,5.829 C35.136,5.667 35.400,5.478 35.592,5.262 C35.604,5.130 35.616,5.010 35.628,4.902 C35.640,4.794 35.646,4.692 35.646,4.596 C35.646,4.284 35.601,3.972 35.511,3.660 ZM19.806,14.388 L26.754,0.024 L28.662,0.924 L21.678,15.360 L19.806,14.388 ZM19.302,9.456 C19.302,9.996 19.194,10.488 18.978,10.932 C18.762,11.376 18.459,11.757 18.069,12.075 C17.679,12.393 17.211,12.642 16.665,12.822 C16.119,13.002 15.516,13.092 14.856,13.092 C14.208,13.092 13.617,13.011 13.083,12.849 C12.549,12.687 12.096,12.456 11.724,12.156 C11.352,11.856 11.064,11.499 10.860,11.085 C10.656,10.671 10.554,10.218 10.554,9.726 C10.554,9.306 10.614,8.931 10.734,8.601 C10.854,8.271 11.022,7.974 11.238,7.710 C11.454,7.446 11.706,7.209 11.994,6.999 C12.282,6.789 12.600,6.594 12.948,6.414 C12.300,6.042 11.799,5.616 11.445,5.136 C11.091,4.656 10.914,4.056 10.914,3.336 C10.914,2.880 11.007,2.448 11.193,2.040 C11.379,1.632 11.649,1.275 12.003,0.969 C12.357,0.663 12.789,0.423 13.299,0.249 C13.809,0.075 14.388,-0.012 15.036,-0.012 C15.624,-0.012 16.158,0.063 16.638,0.213 C17.118,0.363 17.529,0.573 17.871,0.843 C18.213,1.113 18.477,1.437 18.663,1.815 C18.849,2.193 18.942,2.604 18.942,3.048 C18.942,3.756 18.777,4.353 18.447,4.839 C18.117,5.325 17.610,5.772 16.926,6.180 C17.694,6.600 18.282,7.056 18.690,7.548 C19.098,8.040 19.302,8.676 19.302,9.456 ZM16.152,2.463 C15.828,2.217 15.438,2.094 14.982,2.094 C14.406,2.094 13.986,2.220 13.722,2.472 C13.458,2.724 13.326,3.024 13.326,3.372 C13.326,3.660 13.389,3.912 13.515,4.128 C13.641,4.344 13.806,4.533 14.010,4.695 C14.214,4.857 14.445,5.004 14.703,5.136 C14.961,5.268 15.228,5.394 15.504,5.514 C16.260,4.914 16.638,4.260 16.638,3.552 C16.638,3.072 16.476,2.709 16.152,2.463 ZM16.665,8.754 C16.515,8.538 16.323,8.340 16.089,8.160 C15.855,7.980 15.594,7.812 15.306,7.656 C15.018,7.500 14.730,7.356 14.442,7.224 C13.842,7.536 13.431,7.878 13.209,8.250 C12.987,8.622 12.876,8.976 12.876,9.312 C12.876,9.780 13.053,10.176 13.407,10.500 C13.761,10.824 14.262,10.986 14.910,10.986 C15.510,10.986 15.990,10.857 16.350,10.599 C16.710,10.341 16.890,9.966 16.890,9.474 C16.890,9.210 16.815,8.970 16.665,8.754 ZM0.690,10.734 L3.390,10.734 L3.390,3.804 L3.696,2.562 L2.760,3.642 L0.996,4.794 L-0.012,3.318 L4.398,0.024 L5.820,0.024 L5.820,10.734 L8.466,10.734 L8.466,12.840 L0.690,12.840 L0.690,10.734 Z" class="cls-1"/>
</svg>
