<svg xmlns="http://www.w3.org/2000/svg" xmlns:xlink="http://www.w3.org/1999/xlink" preserveAspectRatio="xMidYMid" width="40" height="31" viewBox="0 0 40 31">
  <defs>
    <style>
      .cls-1 {
        fill: #fff;
        fill-rule: evenodd;
      }
    </style>
  </defs>
  <path d="M28.090,22.691 L32.571,3.432 L40.000,11.302 L28.090,22.691 ZM30.849,4.943 L27.211,20.581 L24.245,11.259 L24.019,10.549 L23.792,9.840 L20.754,0.293 L20.793,0.127 L31.346,2.615 L31.389,2.625 L31.127,3.752 L30.849,4.943 ZM22.945,11.576 L23.170,12.286 L26.070,21.395 L26.060,21.428 L19.995,15.323 L19.523,14.848 L19.051,14.373 L17.777,13.091 L17.222,12.532 L16.667,11.973 L9.276,4.533 L8.896,3.340 L19.259,-0.002 L19.371,0.349 L19.767,1.591 L20.163,2.836 L22.718,10.867 L22.945,11.576 ZM16.489,12.744 L17.044,13.302 L17.599,13.861 L18.568,14.837 L19.040,15.311 L19.511,15.786 L25.837,22.154 L26.370,22.690 L26.654,22.976 L26.903,23.227 L26.934,23.257 L26.876,23.315 L26.484,23.710 L25.864,24.334 L24.852,25.352 L24.779,25.426 L23.367,26.847 L23.200,27.015 L22.937,27.280 L22.573,27.647 L22.306,27.916 L21.779,28.445 L21.675,28.551 L21.622,28.604 L19.239,31.003 L18.493,30.252 L17.999,29.755 L17.504,29.257 L16.975,28.725 L16.502,28.249 L15.944,27.686 L15.793,27.535 L15.084,26.821 L14.914,26.649 L14.677,26.412 L14.123,25.853 L13.568,25.295 L0.000,11.638 L7.676,3.911 L7.695,3.892 L8.690,4.893 L9.720,5.930 L16.489,12.744 ZM20.098,26.239 C21.194,26.239 22.083,25.344 22.083,24.242 C22.083,23.139 21.194,22.245 20.098,22.245 C19.002,22.245 18.114,23.139 18.114,24.242 C18.114,25.344 19.002,26.239 20.098,26.239 Z" class="cls-1"/>
</svg>
