<svg xmlns="http://www.w3.org/2000/svg" xmlns:xlink="http://www.w3.org/1999/xlink" preserveAspectRatio="xMidYMid" width="16" height="31" viewBox="0 0 16 31">
  <defs>
    <style>
      .cls-1 {
        fill: #fff;
        fill-rule: evenodd;
      }
    </style>
  </defs>
  <path d="M15.931,4.830 L12.917,0.124 C12.906,0.106 12.889,0.093 12.873,0.079 C12.865,0.071 12.861,0.062 12.852,0.055 C12.850,0.054 12.848,0.054 12.847,0.052 C12.815,0.030 12.781,0.014 12.744,0.006 C12.734,0.004 12.725,0.006 12.715,0.005 C12.686,0.002 12.658,0.000 12.629,0.006 C12.625,0.006 12.621,0.005 12.617,0.006 L0.209,2.808 C0.118,2.828 0.044,2.891 0.012,2.975 C0.010,2.984 0.012,2.992 0.010,3.000 L0.002,2.997 L0.002,3.094 C0.002,3.098 0.001,3.103 0.002,3.107 L0.002,27.795 L9.610,30.997 L9.610,24.163 L10.314,23.863 L10.314,26.865 L15.998,29.410 L15.998,5.110 L15.928,5.076 C15.969,4.997 15.980,4.907 15.931,4.830 ZM12.405,3.319 L10.314,2.277 L10.314,23.289 L9.611,23.589 L9.611,6.537 L0.825,3.300 L0.758,3.220 L12.405,0.591 L12.405,3.319 ZM12.951,3.362 C12.952,3.352 12.957,3.344 12.957,3.333 L12.957,1.194 L14.960,4.321 L12.951,3.362 Z" class="cls-1"/>
</svg>
