<svg xmlns="http://www.w3.org/2000/svg" xmlns:xlink="http://www.w3.org/1999/xlink" preserveAspectRatio="xMidYMid" width="27" height="26" viewBox="0 0 27 26">
  <defs>
    <style>
      .cls-1 {
        fill: #fff;
        fill-rule: evenodd;
      }
    </style>
  </defs>
  <path d="M26.664,9.255 C26.379,8.882 25.950,8.665 25.495,8.665 L23.995,8.665 C23.995,7.794 23.324,7.088 22.495,7.088 L20.996,7.088 L20.996,5.512 C20.996,4.642 20.324,3.936 19.496,3.936 L18.746,3.936 L18.746,0.784 C18.746,0.348 18.409,-0.005 17.996,-0.005 L2.998,-0.005 C2.584,-0.005 2.248,0.348 2.248,0.784 L2.248,3.936 L1.498,3.936 C0.670,3.936 -0.001,4.642 -0.001,5.512 L-0.001,24.427 C-0.001,25.297 0.670,26.003 1.498,26.003 L4.498,26.003 L19.496,26.003 L22.495,26.003 C23.198,26.003 23.807,25.490 23.958,24.769 L26.958,10.583 C27.058,10.116 26.949,9.628 26.664,9.255 ZM2.248,24.427 L1.498,24.427 L1.498,5.512 L2.248,5.512 L2.248,24.427 ZM17.996,7.088 C17.167,7.088 16.496,7.794 16.496,8.665 L7.498,8.665 C6.794,8.665 6.185,9.178 6.033,9.899 C6.033,9.899 2.999,24.313 2.999,24.427 L2.998,24.427 L2.998,0.784 L17.996,0.784 L17.996,7.088 ZM19.496,7.088 L18.746,7.088 L18.746,5.512 L19.496,5.512 L19.496,7.088 ZM14.896,4.278 L5.948,4.278 C5.534,4.278 5.198,3.925 5.198,3.490 C5.198,3.055 5.534,2.702 5.948,2.702 L14.896,2.702 C15.310,2.702 15.646,3.055 15.646,3.490 C15.646,3.925 15.310,4.278 14.896,4.278 ZM14.896,7.483 L5.948,7.483 C5.534,7.483 5.198,7.130 5.198,6.695 C5.198,6.259 5.534,5.906 5.948,5.906 L14.896,5.906 C15.310,5.906 15.646,6.259 15.646,6.695 C15.646,7.130 15.310,7.483 14.896,7.483 Z" class="cls-1"/>
</svg>
