<svg xmlns="http://www.w3.org/2000/svg" xmlns:xlink="http://www.w3.org/1999/xlink" preserveAspectRatio="xMidYMid" width="28" height="27" viewBox="0 0 28 27">
  <defs>
    <style>
      .cls-1 {
        fill: #fff;
        fill-rule: evenodd;
      }
    </style>
  </defs>
  <path d="M21.137,27.000 C18.263,27.000 15.802,25.176 14.780,22.589 C14.454,21.765 14.275,20.864 14.275,19.918 C14.275,16.008 17.347,12.837 21.137,12.837 C22.334,12.837 23.459,13.154 24.438,13.709 C26.561,14.913 28.000,17.242 28.000,19.918 C28.000,23.829 24.927,27.000 21.137,27.000 ZM25.986,19.297 L24.438,19.297 L21.946,19.297 C21.887,19.217 21.818,19.145 21.739,19.085 L21.739,14.915 C21.739,14.572 21.470,14.294 21.137,14.294 C20.805,14.294 20.535,14.572 20.535,14.915 L20.535,19.085 C20.287,19.275 20.126,19.580 20.126,19.923 C20.126,20.500 20.579,20.967 21.137,20.967 C21.472,20.967 21.769,20.798 21.953,20.540 L24.438,20.540 L25.986,20.540 C26.318,20.540 26.588,20.261 26.588,19.918 C26.588,19.575 26.318,19.297 25.986,19.297 ZM21.137,11.906 C20.089,11.906 19.072,12.117 18.114,12.536 C17.189,12.939 16.359,13.517 15.646,14.252 C14.933,14.988 14.373,15.845 13.982,16.799 C13.577,17.788 13.372,18.837 13.372,19.918 C13.372,20.838 13.521,21.734 13.814,22.589 L1.806,22.589 C0.808,22.589 -0.000,21.755 -0.000,20.726 L-0.000,9.557 L-0.000,4.362 C-0.000,3.333 0.808,2.498 1.806,2.498 L3.682,2.498 L3.682,1.242 C3.682,0.556 4.221,-0.000 4.886,-0.000 L6.522,-0.000 C7.187,-0.000 7.726,0.556 7.726,1.242 L7.726,2.498 L10.197,2.498 L10.197,1.242 C10.197,0.556 10.736,-0.000 11.401,-0.000 L13.037,-0.000 C13.702,-0.000 14.241,0.556 14.241,1.242 L14.241,2.498 L16.713,2.498 L16.713,1.242 C16.713,0.556 17.252,-0.000 17.916,-0.000 L19.552,-0.000 C20.217,-0.000 20.756,0.556 20.756,1.242 L20.756,2.498 L22.633,2.498 C23.630,2.498 24.438,3.333 24.438,4.362 L24.438,9.557 L24.438,12.664 C24.346,12.620 24.254,12.576 24.160,12.536 C23.202,12.117 22.185,11.906 21.137,11.906 ZM23.084,4.362 C23.084,4.105 22.882,3.896 22.633,3.896 L20.756,3.896 L20.756,4.652 C20.756,5.338 20.217,5.894 19.552,5.894 L17.916,5.894 C17.252,5.894 16.713,5.338 16.713,4.652 L16.713,3.896 L14.241,3.896 L14.241,4.652 C14.241,5.338 13.702,5.894 13.037,5.894 L11.401,5.894 C10.736,5.894 10.197,5.338 10.197,4.652 L10.197,3.896 L7.726,3.896 L7.726,4.652 C7.726,5.338 7.187,5.894 6.522,5.894 L4.886,5.894 C4.221,5.894 3.682,5.338 3.682,4.652 L3.682,3.896 L1.806,3.896 C1.557,3.896 1.354,4.105 1.354,4.362 L1.354,8.159 L23.084,8.159 L23.084,4.362 Z" class="cls-1"/>
</svg>
