<svg xmlns="http://www.w3.org/2000/svg" xmlns:xlink="http://www.w3.org/1999/xlink" preserveAspectRatio="xMidYMid" width="24" height="33.97" viewBox="0 0 24 33.97">
  <defs>
    <style>
      .cls-1 {
        fill: #fff;
        fill-rule: evenodd;
      }
    </style>
  </defs>
  <path d="M7.898,0.014 L2.541,10.882 L2.023,11.932 L0.001,16.033 L0.058,16.065 C-0.092,16.810 0.259,17.606 0.966,17.978 C0.966,17.978 3.112,20.070 4.954,21.038 C6.794,22.003 2.871,24.312 1.765,26.557 C0.160,29.813 -0.217,32.939 1.388,33.780 C2.998,34.625 5.220,32.471 6.826,29.215 C7.933,26.970 7.548,22.401 9.240,23.287 C10.933,24.176 13.986,24.816 13.986,24.816 C14.692,25.185 15.522,25.010 16.017,24.446 L16.108,24.494 L18.129,20.391 L18.648,19.341 L24.003,8.473 L7.898,0.014 ZM7.258,3.212 C7.232,3.269 7.202,3.326 7.208,3.297 L7.258,3.212 ZM15.667,23.232 L1.249,15.659 L2.867,12.377 L17.285,19.950 L15.667,23.232 ZM21.238,9.381 C20.942,9.450 19.016,9.882 18.231,10.350 C16.642,11.297 15.889,11.523 14.582,8.975 C13.275,6.426 12.469,7.486 10.227,9.678 C7.062,12.770 5.954,7.713 7.293,3.152 L7.409,2.956 L8.284,1.184 L22.861,8.839 L22.597,9.373 C22.598,9.375 21.533,9.312 21.238,9.381 Z" class="cls-1"/>
</svg>
