<svg xmlns="http://www.w3.org/2000/svg" xmlns:xlink="http://www.w3.org/1999/xlink" preserveAspectRatio="xMidYMid" width="25" height="25" viewBox="0 0 25 25">
  <defs>
    <style>
      .cls-1 {
        fill: #fff;
        fill-rule: evenodd;
      }
    </style>
  </defs>
  <path d="M24.139,13.883 C24.295,14.361 24.373,14.773 24.372,15.121 C24.404,15.946 24.180,16.689 23.701,17.351 C23.877,17.959 23.877,18.594 23.701,19.256 C23.545,19.874 23.263,20.384 22.857,20.785 C22.951,22.001 22.695,22.983 22.092,23.732 C21.425,24.556 20.399,24.980 19.014,25.001 L18.451,25.001 L17.264,25.001 L16.998,25.001 C16.311,25.001 15.561,24.917 14.749,24.749 C13.937,24.580 13.304,24.423 12.851,24.277 C12.398,24.130 11.770,23.916 10.969,23.634 C9.687,23.167 8.865,22.929 8.500,22.917 C8.229,22.907 7.995,22.800 7.797,22.600 C7.599,22.399 7.500,22.158 7.500,21.875 L7.500,11.441 C7.500,11.170 7.594,10.934 7.781,10.733 C7.969,10.532 8.193,10.421 8.453,10.399 C8.703,10.377 9.099,10.058 9.640,9.439 C10.182,8.820 10.708,8.164 11.218,7.469 C11.927,6.525 12.453,5.874 12.796,5.516 C12.984,5.320 13.145,5.060 13.281,4.735 C13.416,4.409 13.507,4.146 13.554,3.945 C13.601,3.744 13.671,3.416 13.765,2.960 C13.838,2.537 13.903,2.206 13.961,1.967 C14.018,1.729 14.120,1.446 14.265,1.121 C14.411,0.795 14.589,0.524 14.797,0.307 C14.995,0.101 15.229,-0.002 15.500,-0.002 C15.979,-0.002 16.408,0.055 16.789,0.168 C17.169,0.283 17.481,0.423 17.726,0.591 C17.971,0.760 18.179,0.979 18.351,1.251 C18.523,1.522 18.648,1.767 18.726,1.984 C18.804,2.200 18.867,2.472 18.914,2.797 C18.960,3.123 18.987,3.367 18.992,3.530 C18.997,3.692 19.000,3.904 19.000,4.164 C19.000,4.577 18.950,4.990 18.851,5.402 C18.752,5.814 18.654,6.140 18.555,6.379 C18.456,6.617 18.312,6.921 18.125,7.290 C18.094,7.355 18.042,7.452 17.969,7.583 C17.896,7.713 17.838,7.833 17.797,7.941 C17.756,8.050 17.714,8.180 17.672,8.332 L22.000,8.332 C22.812,8.332 23.515,8.641 24.109,9.260 C24.701,9.879 24.998,10.611 24.998,11.458 C24.998,12.391 24.712,13.199 24.139,13.883 ZM5.501,22.918 L1.002,22.918 C0.731,22.918 0.496,22.815 0.298,22.609 C0.100,22.402 0.001,22.158 0.001,21.876 L0.001,11.458 C0.001,11.176 0.100,10.932 0.298,10.725 C0.496,10.519 0.730,10.416 1.002,10.416 L5.501,10.416 C5.771,10.416 6.006,10.519 6.204,10.725 C6.402,10.932 6.501,11.176 6.501,11.458 L6.501,21.876 C6.501,22.158 6.402,22.402 6.204,22.609 C6.006,22.815 5.771,22.918 5.501,22.918 ZM3.704,19.060 C3.506,18.854 3.272,18.751 3.001,18.751 C2.720,18.751 2.483,18.854 2.290,19.060 C2.098,19.266 2.001,19.510 2.001,19.792 C2.001,20.085 2.098,20.332 2.290,20.533 C2.483,20.734 2.720,20.834 3.001,20.834 C3.272,20.834 3.506,20.734 3.704,20.533 C3.902,20.332 4.001,20.085 4.001,19.792 C4.001,19.510 3.902,19.266 3.704,19.060 Z" class="cls-1"/>
</svg>
