<svg xmlns="http://www.w3.org/2000/svg" xmlns:xlink="http://www.w3.org/1999/xlink" preserveAspectRatio="xMidYMid" width="33" height="27" viewBox="0 0 33 27">
  <defs>
    <style>
      .cls-1 {
        fill: #fff;
        fill-rule: evenodd;
      }
    </style>
  </defs>
  <path d="M29.925,8.890 C28.892,8.890 28.054,9.721 28.054,10.743 C28.054,11.765 28.892,12.596 29.925,12.596 C30.954,12.596 31.792,11.765 31.792,10.743 C31.792,9.721 30.954,8.890 29.925,8.890 ZM3.079,8.890 C2.046,8.890 1.208,9.721 1.208,10.743 C1.208,11.765 2.046,12.596 3.079,12.596 C4.109,12.596 4.947,11.765 4.947,10.743 C4.947,9.721 4.109,8.890 3.079,8.890 ZM24.369,5.518 C22.836,5.518 21.593,6.756 21.593,8.278 C21.593,9.798 22.836,11.033 24.369,11.033 C25.903,11.033 27.148,9.798 27.148,8.278 C27.148,6.758 25.899,5.518 24.369,5.518 ZM32.992,22.292 L29.826,22.292 L29.826,16.508 C29.826,15.514 29.530,14.592 29.059,13.788 C29.337,13.707 29.621,13.649 29.925,13.649 C31.613,13.649 32.992,15.018 32.992,16.697 L32.992,22.292 ZM8.632,5.518 C7.098,5.518 5.852,6.756 5.852,8.278 C5.852,9.798 7.098,11.033 8.632,11.033 C10.162,11.033 11.408,9.798 11.408,8.278 C11.408,6.758 10.162,5.518 8.632,5.518 ZM3.079,13.649 C3.381,13.649 3.663,13.707 3.942,13.788 C3.464,14.592 3.175,15.514 3.175,16.508 L3.175,22.292 L0.008,22.292 L0.008,16.697 C0.008,15.018 1.388,13.649 3.079,13.649 ZM16.497,0.007 C14.234,0.007 12.388,1.837 12.388,4.085 C12.388,6.333 14.232,8.165 16.497,8.165 C18.764,8.165 20.607,6.333 20.607,4.085 C20.609,1.837 18.764,0.007 16.497,0.007 ZM28.809,24.445 L23.956,24.445 L23.956,15.644 C23.956,14.433 23.636,13.308 23.114,12.299 C23.511,12.183 23.928,12.100 24.365,12.100 C26.812,12.100 28.809,14.075 28.809,16.508 L28.809,24.445 ZM9.037,15.644 L9.037,24.445 L4.192,24.445 L4.192,16.508 C4.192,14.077 6.183,12.100 8.634,12.100 C9.071,12.100 9.485,12.183 9.881,12.299 C9.360,13.308 9.037,14.433 9.037,15.644 ZM10.054,26.992 L22.939,26.992 L22.939,15.644 C22.939,12.118 20.047,9.249 16.497,9.249 C12.941,9.249 10.054,12.118 10.054,15.644 L10.054,26.992 Z" class="cls-1"/>
</svg>
