<svg xmlns="http://www.w3.org/2000/svg" xmlns:xlink="http://www.w3.org/1999/xlink" preserveAspectRatio="xMidYMid" width="12" height="10" viewBox="0 0 12 10">
  <defs>
    <style>
      .cls-1 {
        fill: #fff;
        fill-rule: evenodd;
      }
    </style>
  </defs>
  <path d="M-0.000,6.251 C0.000,6.390 0.104,6.503 0.233,6.503 L6.977,6.503 L5.827,9.647 C5.788,9.752 5.819,9.873 5.903,9.941 C5.987,10.009 6.103,10.009 6.186,9.939 L11.909,5.191 C11.966,5.144 12.000,5.070 12.000,4.991 C12.000,4.913 11.966,4.839 11.909,4.792 L6.186,0.044 C6.144,0.009 6.094,-0.009 6.044,-0.009 C5.994,-0.009 5.945,0.008 5.903,0.042 C5.819,0.110 5.788,0.231 5.827,0.336 L6.978,3.480 L0.233,3.480 C0.104,3.480 0.000,3.593 0.000,3.731 L-0.000,6.251 Z" class="cls-1"/>
</svg>
