<svg xmlns="http://www.w3.org/2000/svg" xmlns:xlink="http://www.w3.org/1999/xlink" preserveAspectRatio="xMidYMid" width="38" height="38" viewBox="0 0 38 38">
  <defs>
    <style>
      .cls-1 {
        fill: #fff;
        fill-rule: evenodd;
      }
    </style>
  </defs>
  <path d="M35.889,37.999 L4.222,37.999 C1.896,37.999 -0.000,36.106 -0.000,33.782 L-0.000,2.108 C-0.000,0.944 0.946,-0.001 2.111,-0.001 C3.276,-0.001 4.222,0.944 4.222,2.108 L4.222,33.782 L35.889,33.782 C37.054,33.782 38.000,34.726 38.000,35.891 C38.000,37.055 37.054,37.999 35.889,37.999 ZM35.331,11.859 L33.558,10.391 L26.186,19.341 C25.831,19.775 25.316,20.045 24.759,20.100 L17.568,20.796 C16.990,20.851 16.458,21.142 16.103,21.602 L9.605,29.965 C9.246,30.424 8.584,30.509 8.123,30.150 L6.456,28.855 C5.995,28.497 5.911,27.835 6.270,27.375 L13.882,17.574 C14.237,17.118 14.769,16.827 15.343,16.768 L22.606,16.068 C23.163,16.013 23.678,15.739 24.033,15.309 L30.307,7.704 L28.382,6.110 C27.698,5.541 27.976,4.436 28.846,4.263 L36.053,2.812 C36.721,2.677 37.341,3.205 37.316,3.883 L37.058,11.083 C37.029,11.960 36.007,12.416 35.331,11.859 Z" class="cls-1"/>
</svg>
