<svg xmlns="http://www.w3.org/2000/svg" xmlns:xlink="http://www.w3.org/1999/xlink" preserveAspectRatio="xMidYMid" width="31" height="40" viewBox="0 0 31 40">
  <defs>
    <style>
      .cls-1 {
        fill: #fff;
        fill-rule: evenodd;
      }
    </style>
  </defs>
  <path d="M30.884,37.845 L18.398,7.496 L20.649,2.167 C20.853,1.684 20.798,1.132 20.503,0.696 C20.207,0.261 19.710,-0.001 19.178,-0.001 L17.165,-0.001 C16.521,-0.001 15.941,0.380 15.694,0.965 L10.537,13.173 L9.781,13.173 C8.901,13.173 8.189,13.875 8.189,14.740 C8.189,15.422 8.633,16.001 9.252,16.216 L6.980,21.594 L6.132,21.594 C5.252,21.594 4.539,22.296 4.539,23.161 C4.539,23.872 5.022,24.473 5.684,24.663 L3.423,30.015 L2.641,30.015 C1.762,30.015 1.049,30.716 1.049,31.581 C1.049,32.272 1.504,32.857 2.135,33.065 L0.122,37.832 C-0.083,38.315 -0.028,38.867 0.268,39.303 C0.563,39.738 1.060,39.999 1.592,39.999 L3.606,39.999 C4.249,39.999 4.830,39.618 5.077,39.034 L15.639,14.027 L25.917,39.020 C26.161,39.611 26.745,39.999 27.394,39.999 L29.407,39.999 C29.937,39.999 30.432,39.740 30.728,39.308 C31.024,38.876 31.083,38.328 30.884,37.845 Z" class="cls-1"/>
</svg>
