<svg xmlns="http://www.w3.org/2000/svg" xmlns:xlink="http://www.w3.org/1999/xlink" preserveAspectRatio="xMidYMid" width="49" height="45" viewBox="0 0 49 45">
  <defs>
    <style>
      .cls-1 {
        fill: #fff;
        fill-rule: evenodd;
      }
    </style>
  </defs>
  <path d="M40.914,24.288 L40.610,24.697 C40.494,24.852 40.308,24.946 40.111,24.946 C39.916,24.946 39.729,24.852 39.613,24.696 L39.308,24.288 C38.481,23.175 31.230,13.285 31.230,8.787 C31.230,3.941 35.214,-0.000 40.111,-0.000 C45.009,-0.000 48.993,3.941 48.993,8.787 C48.993,13.285 41.741,23.175 40.914,24.288 ZM40.111,5.929 C38.101,5.929 36.465,7.547 36.465,9.536 C36.465,11.526 38.101,13.143 40.111,13.143 C42.122,13.143 43.757,11.525 43.757,9.536 C43.757,7.548 42.122,5.929 40.111,5.929 ZM40.111,11.547 C38.992,11.547 38.081,10.645 38.081,9.537 C38.081,8.429 38.992,7.527 40.111,7.527 C41.231,7.527 42.143,8.428 42.143,9.537 C42.143,10.645 41.231,11.547 40.111,11.547 ZM33.788,28.986 C34.171,29.492 34.065,30.210 33.555,30.588 L28.817,34.091 C28.609,34.245 28.367,34.319 28.126,34.319 C27.774,34.319 27.426,34.160 27.198,33.860 C26.816,33.353 26.922,32.635 27.432,32.258 L32.170,28.754 C32.681,28.374 33.405,28.479 33.788,28.986 ZM21.710,39.344 C21.503,39.499 21.260,39.572 21.019,39.572 C20.667,39.572 20.319,39.415 20.092,39.113 C19.709,38.607 19.815,37.889 20.327,37.512 L25.063,34.009 C25.575,33.629 26.300,33.733 26.682,34.240 C27.064,34.746 26.960,35.464 26.448,35.841 L21.710,39.344 ZM17.959,39.262 C18.469,38.883 19.193,38.987 19.577,39.494 C19.957,39.999 19.853,40.717 19.341,41.095 L16.872,42.922 C16.664,43.075 16.420,43.150 16.179,43.150 C15.841,43.150 15.508,42.999 15.280,42.719 C14.829,43.350 14.494,43.804 14.332,44.023 L13.880,44.631 C13.709,44.861 13.434,44.999 13.144,44.999 C12.853,44.999 12.578,44.861 12.404,44.629 L11.955,44.023 C10.733,42.376 0.004,27.748 0.004,21.092 C0.004,13.922 5.900,8.091 13.144,8.091 C20.389,8.091 26.284,13.923 26.284,21.092 C26.284,25.772 20.980,34.393 17.404,39.671 L17.959,39.262 ZM18.536,22.200 C18.536,19.257 16.118,16.862 13.144,16.862 C10.170,16.862 7.749,19.257 7.749,22.200 C7.749,25.143 10.170,27.536 13.144,27.536 C16.118,27.536 18.537,25.143 18.536,22.200 ZM13.144,25.173 C11.487,25.173 10.140,23.839 10.140,22.200 C10.140,20.561 11.487,19.227 13.144,19.227 C14.800,19.227 16.148,20.561 16.148,22.200 C16.148,23.839 14.800,25.173 13.144,25.173 ZM37.009,25.176 C37.521,24.796 38.245,24.900 38.628,25.407 C39.010,25.914 38.906,26.632 38.394,27.009 L35.923,28.835 C35.715,28.991 35.473,29.064 35.232,29.064 C34.879,29.064 34.532,28.905 34.304,28.604 C33.923,28.098 34.027,27.380 34.539,27.002 L37.009,25.176 Z" class="cls-1"/>
</svg>
