<svg xmlns="http://www.w3.org/2000/svg" xmlns:xlink="http://www.w3.org/1999/xlink" preserveAspectRatio="xMidYMid" width="48.062" height="42" viewBox="0 0 48.062 42">
  <defs>
    <style>
      .cls-1 {
        fill: #fff;
        fill-rule: evenodd;
      }
    </style>
  </defs>
  <path d="M19.131,24.023 C19.039,26.371 19.965,28.278 21.670,29.254 C22.397,29.670 23.211,29.878 24.026,29.878 C24.841,29.878 25.656,29.670 26.383,29.254 C28.088,28.278 29.013,26.371 28.922,24.023 C28.809,21.100 26.324,19.686 24.064,19.610 C24.039,19.609 24.014,19.609 23.989,19.610 C21.728,19.686 19.244,21.100 19.131,24.023 ZM21.287,24.101 C21.353,22.404 22.795,21.743 24.026,21.689 C25.258,21.743 26.700,22.404 26.766,24.101 C26.827,25.664 26.285,26.891 25.281,27.466 C24.507,27.909 23.546,27.909 22.772,27.466 C21.767,26.891 21.226,25.664 21.287,24.101 ZM36.337,24.023 C36.246,26.371 37.172,28.278 38.877,29.254 C39.603,29.670 40.418,29.878 41.233,29.878 C42.048,29.878 42.863,29.670 43.589,29.254 C45.294,28.278 46.220,26.371 46.129,24.023 C46.015,21.100 43.531,19.686 41.271,19.610 C41.246,19.609 41.220,19.609 41.195,19.610 C38.935,19.686 36.450,21.100 36.337,24.023 ZM38.493,24.101 C38.559,22.404 40.001,21.743 41.233,21.689 C42.465,21.743 43.907,22.404 43.973,24.101 C44.034,25.665 43.492,26.891 42.487,27.466 C41.714,27.909 40.753,27.909 39.979,27.466 C38.974,26.891 38.433,25.665 38.493,24.101 ZM30.273,9.644 C31.000,10.060 31.815,10.268 32.629,10.268 C33.444,10.268 34.259,10.060 34.986,9.644 C36.691,8.668 37.617,6.761 37.525,4.413 C37.412,1.490 34.928,0.077 32.667,0.000 C32.642,-0.001 32.617,-0.001 32.592,0.000 C30.332,0.077 27.847,1.490 27.734,4.413 C27.642,6.761 28.568,8.668 30.273,9.644 ZM29.890,4.491 C29.956,2.794 31.398,2.134 32.629,2.080 C33.861,2.134 35.303,2.794 35.369,4.491 C35.430,6.055 34.889,7.281 33.884,7.857 C33.110,8.299 32.149,8.299 31.375,7.857 C30.370,7.281 29.829,6.055 29.890,4.491 ZM4.464,29.254 C5.190,29.670 6.005,29.878 6.820,29.878 C7.634,29.878 8.449,29.670 9.176,29.254 C10.881,28.278 11.807,26.371 11.716,24.023 C11.602,21.100 9.118,19.686 6.857,19.610 C6.832,19.609 6.807,19.609 6.782,19.610 C4.522,19.686 2.037,21.100 1.924,24.023 C1.833,26.371 2.758,28.278 4.464,29.254 ZM4.080,24.101 C4.146,22.404 5.588,21.743 6.820,21.689 C8.051,21.743 9.494,22.404 9.560,24.101 C9.620,25.664 9.079,26.891 8.074,27.466 C7.300,27.909 6.339,27.909 5.565,27.466 C4.561,26.891 4.019,25.664 4.080,24.101 ZM30.832,40.719 C30.940,41.284 30.553,41.827 29.967,41.931 C29.901,41.943 29.835,41.949 29.770,41.949 C29.260,41.949 28.806,41.601 28.710,41.101 L27.759,36.156 C27.432,34.454 25.649,33.699 24.026,33.699 C22.404,33.699 20.621,34.474 20.293,36.175 L19.579,39.920 L24.490,39.920 C25.086,39.920 25.569,40.386 25.569,40.960 C25.569,41.533 25.086,41.999 24.490,41.999 L18.282,41.999 C17.961,41.999 17.657,41.836 17.452,41.598 C17.247,41.361 17.163,41.022 17.221,40.719 L18.172,35.771 C18.725,32.894 21.511,31.607 24.026,31.607 C26.542,31.607 29.328,32.894 29.881,35.771 L30.832,40.719 ZM32.629,14.278 C31.007,14.278 29.224,15.040 28.897,16.742 C28.788,17.306 28.225,17.680 27.640,17.575 C27.054,17.470 26.667,16.927 26.775,16.364 C27.328,13.487 30.113,12.199 32.629,12.199 C35.145,12.199 37.931,13.486 38.484,16.364 C38.593,16.927 38.206,17.470 37.620,17.575 C37.554,17.586 37.487,17.592 37.422,17.592 C36.912,17.592 36.459,17.242 36.363,16.742 C36.035,15.040 34.252,14.278 32.629,14.278 ZM47.174,41.931 C47.108,41.943 47.042,41.949 46.976,41.949 C46.466,41.949 46.013,41.601 45.917,41.101 L44.966,36.156 C44.639,34.454 42.856,33.699 41.233,33.699 C39.611,33.699 37.827,34.474 37.500,36.175 L36.785,39.920 L41.696,39.920 C42.292,39.920 42.775,40.386 42.775,40.960 C42.775,41.533 42.292,41.999 41.696,41.999 L35.488,41.999 C35.167,41.999 34.864,41.836 34.659,41.598 C34.454,41.361 34.369,41.022 34.427,40.719 L35.378,35.771 C35.931,32.894 38.717,31.607 41.233,31.607 C43.749,31.607 46.535,32.894 47.087,35.771 L48.038,40.719 C48.147,41.284 47.760,41.827 47.174,41.931 ZM13.067,9.644 C13.794,10.060 14.608,10.268 15.423,10.268 C16.238,10.268 17.052,10.060 17.779,9.644 C19.484,8.668 20.410,6.761 20.319,4.413 C20.206,1.490 17.721,0.077 15.461,0.000 C15.436,-0.001 15.410,-0.001 15.385,0.000 C13.125,0.077 10.641,1.490 10.527,4.413 C10.436,6.761 11.362,8.668 13.067,9.644 ZM12.683,4.491 C12.749,2.794 14.191,2.134 15.423,2.080 C16.655,2.133 18.097,2.794 18.163,4.491 C18.224,6.055 17.682,7.281 16.677,7.856 C15.904,8.299 14.943,8.299 14.169,7.856 C13.164,7.281 12.623,6.055 12.683,4.491 ZM13.625,40.719 C13.734,41.284 13.347,41.827 12.761,41.931 C12.695,41.943 12.629,41.949 12.563,41.949 C12.053,41.949 11.600,41.601 11.504,41.101 L10.553,36.156 C10.226,34.454 8.442,33.699 6.820,33.699 C5.197,33.699 3.414,34.474 3.087,36.175 L2.372,39.920 L7.598,39.920 C8.194,39.920 8.677,40.386 8.677,40.960 C8.677,41.533 8.194,41.999 7.598,41.999 L1.075,41.999 C0.754,41.999 0.451,41.836 0.246,41.598 C0.041,41.361 -0.044,41.022 0.014,40.719 L0.965,35.771 C1.518,32.894 4.304,31.607 6.820,31.607 C9.335,31.606 12.121,32.894 12.674,35.771 L13.625,40.719 ZM15.423,14.278 C13.801,14.278 12.017,15.040 11.690,16.742 C11.582,17.306 11.019,17.679 10.433,17.575 C9.847,17.470 9.460,16.927 9.569,16.363 C10.121,13.487 12.907,12.199 15.423,12.199 C17.939,12.199 20.725,13.487 21.278,16.363 C21.386,16.927 20.999,17.470 20.413,17.575 C20.347,17.586 20.281,17.592 20.216,17.592 C19.706,17.592 19.252,17.242 19.156,16.742 C18.829,15.040 17.045,14.278 15.423,14.278 Z" class="cls-1"/>
</svg>
