<svg xmlns="http://www.w3.org/2000/svg" xmlns:xlink="http://www.w3.org/1999/xlink" preserveAspectRatio="xMidYMid" width="9" height="8" viewBox="0 0 9 8">
  <defs>
    <style>
      .cls-1 {
        fill: #009ade;
        fill-rule: evenodd;
      }
    </style>
  </defs>
  <path d="M-0.000,5.001 C-0.000,5.112 0.078,5.202 0.175,5.202 L5.233,5.202 L4.370,7.717 C4.341,7.802 4.364,7.898 4.427,7.952 C4.490,8.007 4.577,8.007 4.640,7.951 L8.932,4.153 C8.975,4.115 9.000,4.056 9.000,3.993 C9.000,3.930 8.975,3.871 8.932,3.833 L4.640,0.035 C4.608,0.007 4.570,-0.007 4.533,-0.007 C4.496,-0.007 4.458,0.007 4.427,0.033 C4.364,0.088 4.341,0.184 4.370,0.269 L5.233,2.784 L0.175,2.784 C0.078,2.784 -0.000,2.874 -0.000,2.985 L-0.000,5.001 Z" class="cls-1"/>
</svg>
