<svg xmlns="http://www.w3.org/2000/svg" xmlns:xlink="http://www.w3.org/1999/xlink" preserveAspectRatio="xMidYMid" width="7" height="12" viewBox="0 0 7 12">
  <defs>
    <style>
      .cls-1 {
        fill: #cfcfcf;
        fill-rule: evenodd;
      }
    </style>
  </defs>
  <path d="M6.736,0.002 L5.057,-0.001 C3.171,-0.001 1.952,1.158 1.952,2.953 L1.952,4.314 L0.264,4.314 C0.118,4.314 -0.000,4.424 -0.000,4.559 L-0.000,6.532 C-0.000,6.667 0.118,6.777 0.264,6.777 L1.952,6.777 L1.952,11.755 C1.952,11.890 2.070,12.000 2.216,12.000 L4.418,12.000 C4.564,12.000 4.682,11.890 4.682,11.755 L4.682,6.777 L6.656,6.777 C6.802,6.777 6.920,6.667 6.920,6.532 L6.921,4.559 C6.921,4.494 6.893,4.432 6.844,4.386 C6.794,4.340 6.727,4.314 6.657,4.314 L4.683,4.314 L4.683,3.160 C4.683,2.605 4.825,2.324 5.605,2.324 L6.736,2.323 C6.882,2.323 7.000,2.214 7.000,2.078 L7.000,0.247 C7.000,0.111 6.882,0.002 6.736,0.002 Z" class="cls-1"/>
</svg>
