<svg xmlns="http://www.w3.org/2000/svg" xmlns:xlink="http://www.w3.org/1999/xlink" preserveAspectRatio="xMidYMid" width="14" height="14" viewBox="0 0 14 14">
  <defs>
    <style>
      .cls-1 {
        fill: #cfcfcf;
        fill-rule: evenodd;
      }
    </style>
  </defs>
  <path d="M0.744,3.490 C0.744,4.678 1.133,5.536 1.901,6.040 C2.530,6.453 3.261,6.515 3.640,6.515 C3.732,6.515 3.806,6.511 3.858,6.507 C3.858,6.507 3.737,7.305 4.318,8.095 L4.292,8.095 C3.285,8.095 0.001,8.309 0.001,11.059 C0.001,13.857 3.017,13.999 3.622,13.999 C3.670,13.999 3.697,13.998 3.697,13.998 C3.704,13.998 3.747,14.000 3.821,14.000 C4.209,14.000 5.213,13.950 6.145,13.488 C7.354,12.890 7.968,11.851 7.968,10.398 C7.968,8.994 7.033,8.159 6.351,7.547 C5.934,7.176 5.575,6.854 5.575,6.542 C5.575,6.224 5.837,5.984 6.170,5.681 C6.708,5.191 7.215,4.493 7.215,3.175 C7.215,2.016 7.067,1.237 6.158,0.743 C6.253,0.694 6.588,0.658 6.754,0.635 C7.247,0.566 7.968,0.489 7.968,0.079 L7.968,-0.000 L4.376,-0.000 C4.340,0.001 0.744,0.136 0.744,3.490 ZM6.542,10.659 C6.610,11.778 5.671,12.604 4.260,12.709 C2.827,12.815 1.647,12.158 1.578,11.041 C1.545,10.504 1.777,9.977 2.231,9.559 C2.691,9.134 3.323,8.872 4.010,8.821 C4.092,8.816 4.172,8.812 4.252,8.812 C5.578,8.812 6.477,9.606 6.542,10.659 ZM5.604,2.725 C5.956,3.987 5.424,5.307 4.576,5.550 C4.479,5.578 4.378,5.592 4.276,5.592 C3.499,5.592 2.730,4.792 2.445,3.690 C2.285,3.070 2.298,2.529 2.481,2.009 C2.660,1.496 2.983,1.150 3.389,1.034 C3.487,1.006 3.588,0.991 3.689,0.991 C4.627,0.991 5.231,1.387 5.604,2.725 ZM11.656,5.474 L11.656,3.087 L10.172,3.087 L10.172,5.474 L7.828,5.474 L7.828,6.985 L10.172,6.985 L10.172,9.372 L11.656,9.372 L11.656,6.985 L13.999,6.985 L13.999,5.474 L11.656,5.474 Z" class="cls-1"/>
</svg>
