<svg xmlns="http://www.w3.org/2000/svg" xmlns:xlink="http://www.w3.org/1999/xlink" preserveAspectRatio="xMidYMid" width="11" height="11" viewBox="0 0 11 11">
  <defs>
    <style>
      .cls-1 {
        fill: #fff;
        fill-rule: evenodd;
      }
    </style>
  </defs>
  <path d="M11.000,6.744 L11.000,10.999 L8.642,10.999 L8.642,7.029 C8.642,6.031 8.301,5.350 7.448,5.350 C6.796,5.350 6.409,5.809 6.238,6.253 C6.176,6.411 6.160,6.632 6.160,6.855 L6.160,10.999 L3.801,10.999 C3.801,10.999 3.833,4.274 3.801,3.577 L6.160,3.577 L6.160,4.629 C6.155,4.637 6.149,4.646 6.144,4.653 L6.160,4.653 L6.160,4.629 C6.473,4.125 7.033,3.403 8.285,3.403 C9.837,3.403 11.000,4.464 11.000,6.744 ZM1.334,-0.000 C0.528,-0.000 -0.000,0.553 -0.000,1.282 C-0.000,1.994 0.512,2.565 1.303,2.565 L1.319,2.565 C2.141,2.565 2.653,1.994 2.653,1.282 C2.637,0.553 2.141,-0.000 1.334,-0.000 ZM0.140,10.999 L2.497,10.999 L2.497,3.577 L0.140,3.577 L0.140,10.999 Z" class="cls-1"/>
</svg>
