<svg xmlns="http://www.w3.org/2000/svg" xmlns:xlink="http://www.w3.org/1999/xlink" preserveAspectRatio="xMidYMid" width="12" height="10" viewBox="0 0 12 10">
  <defs>
    <style>
      .cls-1 {
        fill: #cfcfcf;
        fill-rule: evenodd;
      }
    </style>
  </defs>
  <path d="M11.993,1.175 C11.551,1.376 11.077,1.511 10.579,1.572 C11.087,1.260 11.478,0.765 11.661,0.175 C11.186,0.465 10.659,0.675 10.098,0.788 C9.649,0.297 9.009,-0.009 8.301,-0.009 C6.941,-0.009 5.839,1.121 5.839,2.516 C5.839,2.714 5.861,2.907 5.903,3.091 C3.857,2.986 2.043,1.981 0.828,0.453 C0.616,0.826 0.495,1.260 0.495,1.722 C0.495,2.599 0.929,3.372 1.590,3.824 C1.187,3.811 0.807,3.697 0.475,3.508 C0.475,3.519 0.475,3.529 0.475,3.540 C0.475,4.763 1.324,5.784 2.450,6.016 C2.243,6.074 2.026,6.104 1.801,6.104 C1.642,6.104 1.488,6.089 1.338,6.060 C1.651,7.062 2.560,7.792 3.638,7.813 C2.795,8.490 1.734,8.894 0.580,8.894 C0.381,8.894 0.185,8.882 -0.007,8.859 C1.082,9.575 2.376,9.993 3.767,9.993 C8.295,9.993 10.771,6.145 10.771,2.809 C10.771,2.699 10.769,2.590 10.764,2.482 C11.245,2.126 11.663,1.681 11.993,1.175 Z" class="cls-1"/>
</svg>
