<svg xmlns="http://www.w3.org/2000/svg" xmlns:xlink="http://www.w3.org/1999/xlink" preserveAspectRatio="xMidYMid" width="14" height="17" viewBox="0 0 14 17">
  <defs>
    <style>
      .cls-1 {
        fill: #cbcbcb;
        fill-rule: evenodd;
      }
    </style>
  </defs>
  <path d="M11.842,12.435 L10.920,12.435 L10.924,11.893 C10.924,11.652 11.120,11.455 11.358,11.455 L11.417,11.455 C11.657,11.455 11.853,11.652 11.853,11.893 L11.842,12.435 ZM8.384,11.273 C8.150,11.273 7.958,11.432 7.958,11.627 L7.958,14.262 C7.958,14.457 8.150,14.616 8.384,14.616 C8.618,14.616 8.810,14.457 8.810,14.262 L8.810,11.627 C8.810,11.432 8.618,11.273 8.384,11.273 ZM14.000,9.799 L14.000,14.813 C14.000,16.015 12.969,17.000 11.709,17.000 L2.290,17.000 C1.030,17.000 -0.000,16.015 -0.000,14.813 L-0.000,9.799 C-0.000,8.596 1.030,7.612 2.290,7.612 L11.709,7.612 C12.969,7.612 14.000,8.596 14.000,9.799 ZM2.919,15.357 L2.918,10.076 L4.086,10.076 L4.086,9.293 L0.973,9.288 L0.973,10.058 L1.945,10.061 L1.945,15.357 L2.919,15.357 ZM6.419,10.862 L5.445,10.862 L5.445,13.682 C5.445,14.091 5.470,14.294 5.444,14.366 C5.365,14.585 5.009,14.818 4.870,14.390 C4.847,14.315 4.867,14.089 4.867,13.702 L4.863,10.862 L3.895,10.862 L3.898,13.657 C3.899,14.086 3.888,14.405 3.901,14.551 C3.925,14.807 3.917,15.106 4.152,15.277 C4.590,15.596 5.429,15.229 5.639,14.772 L5.637,15.355 L6.419,15.356 L6.419,10.862 L6.419,10.862 ZM9.533,14.092 L9.531,11.745 C9.530,10.850 8.869,10.314 7.971,11.038 L7.975,9.293 L7.002,9.294 L6.998,15.318 L7.797,15.306 L7.870,14.931 C8.892,15.880 9.534,15.230 9.533,14.092 ZM12.579,13.781 L11.850,13.785 C11.849,13.814 11.848,13.848 11.848,13.884 L11.848,14.297 C11.848,14.517 11.668,14.697 11.449,14.697 L11.306,14.697 C11.087,14.697 10.907,14.517 10.907,14.297 L10.907,14.251 L10.907,13.798 L10.907,13.213 L12.578,13.213 L12.578,12.576 C12.578,12.111 12.566,11.646 12.528,11.380 C12.409,10.539 11.242,10.405 10.652,10.836 C10.467,10.970 10.326,11.150 10.244,11.392 C10.161,11.634 10.120,11.965 10.120,12.384 L10.120,13.784 C10.120,16.111 12.913,15.782 12.579,13.781 ZM8.835,6.182 C8.885,6.306 8.963,6.406 9.069,6.481 C9.174,6.556 9.308,6.593 9.468,6.593 C9.608,6.593 9.732,6.555 9.841,6.476 C9.949,6.397 10.040,6.279 10.114,6.122 L10.095,6.509 L11.181,6.509 L11.181,1.839 L10.326,1.839 L10.326,5.474 C10.326,5.670 10.166,5.832 9.970,5.832 C9.776,5.832 9.615,5.670 9.615,5.474 L9.615,1.839 L8.723,1.839 L8.723,4.989 C8.723,5.390 8.730,5.657 8.742,5.793 C8.755,5.928 8.785,6.057 8.835,6.182 ZM5.547,3.545 C5.547,3.097 5.584,2.747 5.657,2.494 C5.731,2.243 5.864,2.041 6.056,1.889 C6.248,1.735 6.493,1.658 6.792,1.658 C7.043,1.658 7.258,1.708 7.438,1.806 C7.618,1.904 7.757,2.032 7.854,2.189 C7.953,2.347 8.019,2.509 8.055,2.675 C8.091,2.844 8.109,3.098 8.109,3.440 L8.109,4.621 C8.109,5.054 8.092,5.373 8.059,5.575 C8.026,5.778 7.955,5.966 7.845,6.142 C7.737,6.317 7.597,6.447 7.427,6.531 C7.256,6.615 7.060,6.656 6.839,6.656 C6.591,6.656 6.383,6.621 6.211,6.549 C6.039,6.477 5.906,6.369 5.811,6.226 C5.715,6.082 5.648,5.906 5.607,5.702 C5.566,5.498 5.547,5.191 5.547,4.781 L5.547,3.545 L5.547,3.545 ZM6.397,5.400 C6.397,5.664 6.591,5.880 6.828,5.880 C7.065,5.880 7.259,5.664 7.259,5.400 L7.259,2.914 C7.259,2.650 7.065,2.434 6.828,2.434 C6.591,2.434 6.397,2.650 6.397,2.914 L6.397,5.400 ZM3.394,6.655 L4.418,6.655 L4.419,3.074 L5.628,0.006 L4.509,0.006 L3.865,2.284 L3.213,-0.001 L2.105,-0.001 L3.392,3.075 L3.394,6.655 Z" class="cls-1"/>
</svg>
