<svg xmlns="http://www.w3.org/2000/svg" xmlns:xlink="http://www.w3.org/1999/xlink" preserveAspectRatio="xMidYMid" width="12" height="12.03" viewBox="0 0 12 12.03">
  <defs>
    <style>
      .cls-1 {
        fill: #404040;
        fill-rule: evenodd;
      }
    </style>
  </defs>
  <path d="M11.729,9.318 L9.876,7.496 C9.507,7.135 8.896,7.146 8.514,7.522 L7.581,8.440 C7.522,8.407 7.461,8.374 7.397,8.339 C6.808,8.017 6.001,7.578 5.152,6.742 C4.301,5.905 3.852,5.110 3.525,4.530 C3.490,4.468 3.457,4.409 3.424,4.353 L4.051,3.738 L4.359,3.435 C4.741,3.059 4.752,2.458 4.384,2.095 L2.531,0.272 C2.163,-0.090 1.551,-0.079 1.169,0.298 L0.647,0.814 L0.661,0.828 C0.486,1.048 0.340,1.302 0.231,1.575 C0.131,1.835 0.068,2.083 0.039,2.332 C-0.205,4.326 0.722,6.149 3.237,8.622 C6.713,12.041 9.515,11.783 9.636,11.771 C9.899,11.739 10.151,11.678 10.408,11.580 C10.683,11.474 10.941,11.330 11.164,11.159 L11.175,11.168 L11.704,10.659 C12.086,10.282 12.097,9.682 11.729,9.318 Z" class="cls-1"/>
</svg>
