<svg xmlns="http://www.w3.org/2000/svg" xmlns:xlink="http://www.w3.org/1999/xlink" preserveAspectRatio="xMidYMid" width="12" height="14" viewBox="0 0 12 14">
  <defs>
    <style>
      .cls-1 {
        fill: #5d5d5d;
        fill-rule: evenodd;
      }
    </style>
  </defs>
  <path d="M11.985,12.164 C11.985,11.945 11.986,12.132 11.985,12.164 ZM11.984,12.420 C11.984,12.420 11.102,14.000 5.993,14.000 C0.884,14.000 0.001,12.420 0.001,12.420 C0.001,12.236 0.001,12.131 0.001,12.074 C0.002,12.104 0.005,12.090 0.010,11.828 C0.078,8.621 0.591,7.697 4.256,7.109 C4.256,7.109 4.777,7.700 5.993,7.700 C7.208,7.700 7.730,7.109 7.730,7.109 C11.435,7.703 11.919,8.642 11.978,11.936 C11.982,12.146 11.984,12.182 11.985,12.164 C11.984,12.220 11.984,12.302 11.984,12.420 ZM5.993,6.847 C4.241,6.847 2.821,5.314 2.821,3.423 C2.821,1.532 3.287,-0.000 5.993,-0.000 C8.699,-0.000 9.165,1.532 9.165,3.423 C9.165,5.314 7.745,6.847 5.993,6.847 Z" class="cls-1"/>
</svg>
