<svg xmlns="http://www.w3.org/2000/svg" xmlns:xlink="http://www.w3.org/1999/xlink" preserveAspectRatio="xMidYMid" width="10" height="15" viewBox="0 0 10 15">
  <defs>
    <style>
      .cls-1 {
        fill: #fff;
        fill-rule: evenodd;
      }
    </style>
  </defs>
  <path d="M5.000,-0.001 C2.243,-0.001 -0.000,2.225 -0.000,4.961 C-0.000,6.062 0.709,7.859 2.167,10.453 C3.199,12.287 4.214,13.817 4.257,13.881 L5.000,14.999 L5.743,13.881 C5.786,13.817 6.800,12.287 7.832,10.453 C9.291,7.859 10.000,6.062 10.000,4.961 C10.000,2.225 7.757,-0.001 5.000,-0.001 ZM5.000,7.499 C3.568,7.499 2.408,6.347 2.408,4.927 C2.408,3.507 3.568,2.355 5.000,2.355 C6.431,2.355 7.591,3.507 7.591,4.927 C7.591,6.347 6.431,7.499 5.000,7.499 Z" class="cls-1"/>
</svg>
