<svg xmlns="http://www.w3.org/2000/svg" xmlns:xlink="http://www.w3.org/1999/xlink" preserveAspectRatio="xMidYMid" width="15" height="10" viewBox="0 0 15 10">
  <defs>
    <style>
      .cls-1 {
        fill: #fff;
        fill-rule: evenodd;
      }
    </style>
  </defs>
  <path d="M0.710,0.068 C0.828,0.025 0.954,-0.001 1.087,-0.001 L13.912,-0.001 C14.045,-0.001 14.171,0.025 14.289,0.068 L8.543,5.368 C7.958,5.907 7.042,5.907 6.456,5.368 L0.710,0.068 ZM14.839,9.485 C14.938,9.325 14.999,9.138 14.999,8.936 L14.999,1.062 C14.999,0.919 14.969,0.783 14.917,0.659 L9.540,5.618 L14.839,9.485 ZM9.053,6.059 C8.607,6.434 8.054,6.623 7.500,6.623 C6.945,6.623 6.392,6.434 5.946,6.059 L0.662,9.915 C0.793,9.970 0.936,10.000 1.087,10.000 L13.912,10.000 C14.063,10.000 14.207,9.970 14.338,9.915 L9.053,6.059 ZM0.083,0.659 C0.030,0.783 0.001,0.919 0.001,1.062 L0.001,8.936 C0.001,9.138 0.061,9.325 0.161,9.485 L5.460,5.618 L0.083,0.659 Z" class="cls-1"/>
</svg>
