<svg xmlns="http://www.w3.org/2000/svg" xmlns:xlink="http://www.w3.org/1999/xlink" preserveAspectRatio="xMidYMid" width="13" height="13.28" viewBox="0 0 13 13.28">
  <defs>
    <style>
      .cls-1 {
        fill: #fff;
        fill-rule: evenodd;
      }
    </style>
  </defs>
  <path d="M12.706,10.281 L10.699,8.264 C10.300,7.864 9.638,7.876 9.224,8.292 L8.213,9.308 C8.149,9.272 8.083,9.235 8.013,9.196 C7.375,8.840 6.501,8.354 5.581,7.429 C4.659,6.502 4.173,5.622 3.819,4.981 C3.781,4.912 3.745,4.847 3.710,4.785 L4.388,4.104 L4.722,3.768 C5.136,3.352 5.148,2.687 4.749,2.286 L2.742,0.268 C2.343,-0.132 1.681,-0.120 1.266,0.297 L0.701,0.868 L0.716,0.883 C0.527,1.127 0.368,1.407 0.250,1.710 C0.141,1.997 0.074,2.272 0.043,2.547 C-0.222,4.755 0.782,6.772 3.506,9.510 C7.273,13.294 10.308,13.008 10.439,12.994 C10.724,12.960 10.997,12.892 11.275,12.783 C11.574,12.666 11.853,12.507 12.094,12.317 L12.107,12.328 L12.680,11.764 C13.093,11.347 13.105,10.682 12.706,10.281 Z" class="cls-1"/>
</svg>
